name analog
datacolumns 19
datarows 43
range 0.593 0.614
endheader
time	ground_force_vx	ground_force_vy	ground_force_vz	ground_force_px	ground_force_py	ground_force_pz	l_ground_force_vx	l_ground_force_vy	l_ground_force_vz	l_ground_force_px	l_ground_force_py	l_ground_force_pz	ground_torque_x	ground_torque_y	ground_torque_z	l_ground_torque_x	l_ground_torque_y	l_ground_torque_z
0.593	-0.0	-0.0	-0.0	13.632841110229492	121.3146514892578	-519.9132690429688	11.225863456726074	-132.43443298339844	-522.80712890625	-0.0	-0.0	-0.0	-0.0	-0.0	-0.0	38308.8046875	40220.8046875	-10324.482421875
0.5935	-0.0	-0.0	-0.0	14.095260620117188	120.67433166503906	-517.886474609375	12.500077247619627	-131.45510864257812	-523.567138671875	-0.0	-0.0	-0.0	-0.0	-0.0	-0.0	38483.40625	39979.4375	-10021.2822265625
0.594	-0.0	-0.0	-0.0	13.79669189453125	119.2481689453125	-513.556640625	13.387106895446776	-130.27447509765625	-520.966552734375	-0.0	-0.0	-0.0	-0.0	-0.0	-0.0	38715.8828125	39351.37890625	-9696.7958984375
0.5945	-0.0	-0.0	-0.0	13.93357276916504	117.84711456298828	-509.2523498535156	14.05543613433838	-129.6644744873047	-515.8920288085938	-0.0	-0.0	-0.0	-0.0	-0.0	-0.0	38432.83203125	39000.21484375	-9488.53125
0.595	-0.0	-0.0	-0.0	14.24834156036377	117.11365509033205	-502.8091430664063	14.249064445495604	-129.07647705078125	-512.870849609375	-0.0	-0.0	-0.0	-0.0	-0.0	-0.0	38410.5859375	38217.5234375	-9417.7841796875
0.5955	-0.0	-0.0	-0.0	14.48176097869873	116.03079223632812	-499.8843688964844	14.071401596069336	-128.49131774902344	-511.2571716308594	-0.0	-0.0	-0.0	-0.0	-0.0	-0.0	38179.1171875	37947.12890625	-9212.8623046875
0.596	-0.0	-0.0	-0.0	14.379990577697754	114.6729507446289	-496.6725158691406	14.088125228881836	-127.69635009765624	-505.3553771972656	-0.0	-0.0	-0.0	-0.0	-0.0	-0.0	38039.8671875	37486.6328125	-9099.611328125
0.5965	-0.0	-0.0	-0.0	14.253506660461426	113.31060791015624	-493.77972412109375	13.792795181274414	-126.65330505371094	-502.8118896484375	-0.0	-0.0	-0.0	-0.0	-0.0	-0.0	37841.8828125	37101.4765625	-9034.5263671875
0.597	-0.0	-0.0	-0.0	13.76448917388916	112.38475036621094	-489.7917785644531	13.670045852661133	-125.53361511230467	-499.635986328125	-0.0	-0.0	-0.0	-0.0	-0.0	-0.0	37553.97265625	36617.44140625	-8823.771484375
0.5975	-0.0	-0.0	-0.0	13.329160690307615	110.53915405273438	-485.2765808105469	13.343544960021973	-123.93251037597656	-494.4326477050781	-0.0	-0.0	-0.0	-0.0	-0.0	-0.0	37427.59765625	36592.5	-8840.8681640625
0.598	-0.0	-0.0	-0.0	12.034605979919434	109.55886840820312	-479.8974609375	12.348212242126465	-123.30574035644533	-492.372314453125	-0.0	-0.0	-0.0	-0.0	-0.0	-0.0	36829.60546875	36362.515625	-8841.4921875
0.5985	-0.0	-0.0	-0.0	11.909937858581545	108.6853485107422	-476.3696594238281	11.132588386535645	-122.76715087890624	-487.5533752441406	-0.0	-0.0	-0.0	-0.0	-0.0	-0.0	36532.41796875	36370.31640625	-8720.6806640625
0.599	-0.0	-0.0	-0.0	11.240524291992188	107.25958251953124	-473.19036865234375	10.77814483642578	-121.5394287109375	-484.2733154296875	-0.0	-0.0	-0.0	-0.0	-0.0	-0.0	35881.359375	36052.68359375	-8768.1943359375
0.5995	-0.0	-0.0	-0.0	11.293753623962402	105.8247528076172	-468.2097473144531	10.405827522277832	-120.72689819335938	-479.5601196289063	-0.0	-0.0	-0.0	-0.0	-0.0	-0.0	35635.25390625	36129.921875	-8904.642578125
0.6	-0.0	-0.0	-0.0	10.661235809326172	104.6221923828125	-462.7730407714844	9.61589527130127	-119.88751220703124	-477.325439453125	-0.0	-0.0	-0.0	-0.0	-0.0	-0.0	35415.49609375	35835.4453125	-8830.84765625
0.6005	-0.0	-0.0	-0.0	10.117257118225098	103.0692138671875	-458.2187805175781	9.075529098510742	-118.67743682861328	-473.27777099609375	-0.0	-0.0	-0.0	-0.0	-0.0	-0.0	35088.28515625	35688.08203125	-8795.20703125
0.601	-0.0	-0.0	-0.0	9.945686340332031	101.64533996582033	-456.9058227539063	8.818648338317871	-117.601318359375	-471.390380859375	-0.0	-0.0	-0.0	-0.0	-0.0	-0.0	34922.40234375	35551.03125	-8741.7939453125
0.6015	-0.0	-0.0	-0.0	9.250221252441406	100.81570434570312	-452.1068420410156	8.259218215942383	-116.752197265625	-469.223876953125	-0.0	-0.0	-0.0	-0.0	-0.0	-0.0	34906.140625	35473.2421875	-8792.14453125
0.602	-0.0	-0.0	-0.0	8.779829978942871	99.71833801269533	-449.4657897949219	7.344612121582031	-115.60393524169922	-468.8382873535156	-0.0	-0.0	-0.0	-0.0	-0.0	-0.0	34644.265625	35079.515625	-8726.92578125
0.6025	-0.0	-0.0	-0.0	8.352627754211426	99.14100646972656	-447.6639099121094	6.485120296478272	-113.97174835205078	-467.0921630859375	-0.0	-0.0	-0.0	-0.0	-0.0	-0.0	34730.1796875	35049.7109375	-8718.98828125
0.603	-0.0	-0.0	-0.0	7.573471546173096	98.12315368652344	-444.9694213867188	5.705428600311279	-113.2469482421875	-464.1691284179688	-0.0	-0.0	-0.0	-0.0	-0.0	-0.0	34649.48828125	34721.2578125	-8669.400390625
0.6035	-0.0	-0.0	-0.0	6.611060619354248	98.1230926513672	-442.2939147949219	5.658743858337402	-112.27552795410156	-461.9645080566406	-0.0	-0.0	-0.0	-0.0	-0.0	-0.0	34365.01171875	34461.0	-8594.2666015625
0.604	-0.0	-0.0	-0.0	5.996153354644775	97.38146209716795	-440.58001708984375	5.766201019287109	-110.86788177490234	-459.7799682617188	-0.0	-0.0	-0.0	-0.0	-0.0	-0.0	34410.80078125	34148.21484375	-8561.0068359375
0.6045	-0.0	-0.0	-0.0	5.7190775871276855	96.82440948486328	-434.4764404296875	5.598273754119873	-110.11824035644533	-456.5280151367188	-0.0	-0.0	-0.0	-0.0	-0.0	-0.0	34567.7578125	34171.6328125	-8501.5546875
0.605	-0.0	-0.0	-0.0	5.639593124389648	96.20067596435548	-432.76025390625	5.173890113830566	-108.85987854003906	-454.8693542480469	-0.0	-0.0	-0.0	-0.0	-0.0	-0.0	34393.171875	33856.92578125	-8392.42578125
0.6055	-0.0	-0.0	-0.0	5.470975399017334	94.79413604736328	-429.6205749511719	4.828784465789795	-107.7023696899414	-452.1513671875	-0.0	-0.0	-0.0	-0.0	-0.0	-0.0	34173.73828125	33650.07421875	-8405.2333984375
0.606	-0.0	-0.0	-0.0	5.699685096740723	94.58804321289062	-426.7963562011719	4.633938789367676	-107.33975219726562	-450.4817504882813	-0.0	-0.0	-0.0	-0.0	-0.0	-0.0	34099.4453125	33483.34765625	-8435.61328125
0.6065	-0.0	-0.0	-0.0	5.025276184082031	94.0922393798828	-423.2262878417969	4.040573596954346	-106.84022521972656	-448.5401611328125	-0.0	-0.0	-0.0	-0.0	-0.0	-0.0	34086.0546875	33366.4375	-8356.6103515625
0.607	-0.0	-0.0	-0.0	4.619101524353027	93.70575714111328	-422.95263671875	4.130217552185059	-106.03532409667967	-448.0000915527344	-0.0	-0.0	-0.0	-0.0	-0.0	-0.0	34144.03125	33228.7578125	-8310.091796875
0.6075	-0.0	-0.0	-0.0	4.827337741851807	93.71590423583984	-420.8720703125	3.4892942905426025	-104.77896881103516	-445.7114562988281	-0.0	-0.0	-0.0	-0.0	-0.0	-0.0	33669.32421875	32921.3828125	-8188.33740234375
0.608	-0.0	-0.0	-0.0	4.678994178771973	92.47824096679688	-416.3595275878906	3.962287187576294	-103.94476318359376	-441.4055480957031	-0.0	-0.0	-0.0	-0.0	-0.0	-0.0	33620.25390625	32687.953125	-8266.876953125
0.6085	-0.0	-0.0	-0.0	4.628854274749756	92.31893157958984	-412.8737487792969	3.4796788692474365	-103.33528137207033	-438.8443298339844	-0.0	-0.0	-0.0	-0.0	-0.0	-0.0	33262.30859375	32512.3828125	-8214.3837890625
0.609	-0.0	-0.0	-0.0	4.776755809783936	92.18910217285156	-409.2953796386719	3.203627824783325	-102.54147338867188	-436.8282165527344	-0.0	-0.0	-0.0	-0.0	-0.0	-0.0	33187.32421875	32598.94140625	-8322.9833984375
0.6095	-0.0	-0.0	-0.0	3.7468414306640634	91.62605285644533	-405.612060546875	3.439549446105957	-101.9433135986328	-435.7015075683594	-0.0	-0.0	-0.0	-0.0	-0.0	-0.0	32794.90234375	32443.6484375	-8339.4970703125
0.61	-0.0	-0.0	-0.0	2.556279420852661	91.6465835571289	-405.8444519042969	3.0060055255889893	-101.81466674804688	-432.75885009765625	-0.0	-0.0	-0.0	-0.0	-0.0	-0.0	33217.90625	32432.056640625	-8299.990234375
0.6105	-0.0	-0.0	-0.0	2.0621588230133057	91.48902893066406	-403.7663879394531	2.463496446609497	-101.63794708251952	-431.51123046875	-0.0	-0.0	-0.0	-0.0	-0.0	-0.0	32994.07421875	32233.859375	-8267.2548828125
0.611	-0.0	-0.0	-0.0	1.132909893989563	91.15962982177734	-402.89599609375	2.296197891235352	-100.95169067382812	-431.4299926757813	-0.0	-0.0	-0.0	-0.0	-0.0	-0.0	32544.658203125	32275.962890625	-8422.37109375
0.6115	-0.0	-0.0	-0.0	0.6084697842597961	90.60873413085938	-398.615966796875	2.087686777114868	-100.11995697021484	-429.2702026367188	-0.0	-0.0	-0.0	-0.0	-0.0	-0.0	32834.828125	32089.291015625	-8376.8349609375
0.612	-0.0	-0.0	-0.0	0.0682108253240585	90.35725402832033	-393.08929443359375	1.685504913330078	-99.21627807617188	-428.7581787109375	-0.0	-0.0	-0.0	-0.0	-0.0	-0.0	32271.77734375	31912.78125	-8445.1171875
0.6125	-0.0	-0.0	-0.0	-0.5352630615234375	90.59877014160156	-392.0716247558594	1.095922350883484	-98.8528060913086	-427.1968383789063	-0.0	-0.0	-0.0	-0.0	-0.0	-0.0	32200.19140625	31814.798828125	-8436.7490234375
0.613	-0.0	-0.0	-0.0	-0.9027462005615234	90.39949798583984	-392.1139831542969	0.8089220523834229	-98.05803680419922	-423.2960205078125	-0.0	-0.0	-0.0	-0.0	-0.0	-0.0	32032.759765625	31986.26171875	-8504.7275390625
0.6135	-0.0	-0.0	-0.0	-1.684312105178833	90.57784271240234	-389.2889099121094	0.2619916796684265	-97.77210998535156	-421.0768432617188	-0.0	-0.0	-0.0	-0.0	-0.0	-0.0	31716.61328125	31925.068359375	-8642.744140625
0.614	-0.0	-0.0	-0.0	-3.079314708709717	90.6487274169922	-387.43841552734375	-0.1454820781946182	-97.69438934326172	-418.9400329589844	-0.0	-0.0	-0.0	-0.0	-0.0	-0.0	31214.3515625	32202.453125	-8601.3857421875
